<?xml version="1.0" encoding="UTF-8"?><svg xmlns="http://www.w3.org/2000/svg" xmlns:xlink="http://www.w3.org/1999/xlink" viewBox="0 0 800 800"><defs><style>.l{fill:none;}.m{fill:#011e2b;}.n{fill:#0071bc;}.o{fill:#fff;}.p{fill:#09487c;}.q{fill:#7badee;}.r{clip-path:url(#d);}.s{clip-path:url(#h);}</style><clipPath id="d"><circle class="l" cx="399.93" cy="395.94" r="320.5"/></clipPath><clipPath id="h"><circle class="l" cx="399.93" cy="395.94" r="320.5"/></clipPath></defs><g id="a"/><g id="b"><g><circle class="n" cx="399.93" cy="395.94" r="320"/><g><polygon class="q" points="371.84 719.5 371.84 418.96 146.25 193.38 186.02 153.61 400 367.59 613.98 153.61 653.75 193.38 428.16 418.96 428.16 719.5 371.84 719.5"/><path class="n" d="M613.98,164.21l29.16,29.16-218.09,218.08-4.39,4.39v296.15h-41.33V415.85l-4.39-4.39L156.86,193.38l29.16-29.16,203.37,203.37,10.61,10.61,10.61-10.61,203.37-203.37m0-21.21l-213.98,213.98L186.02,143l-50.37,50.37,228.69,228.69v304.93h71.33V422.07l228.69-228.69-50.37-50.37h0Z"/></g><circle class="q" cx="399.93" cy="716.44" r="57.91"/><circle class="q" cx="634.77" cy="174.01" r="57.91"/><circle class="q" cx="156.29" cy="174.01" r="57.91"/><circle class="p" cx="634.77" cy="174.01" r="40.95"/><circle class="m" cx="634.77" cy="174.01" r="23.92"/><circle class="p" cx="156.29" cy="174.01" r="40.95"/><circle class="m" cx="156.29" cy="174.01" r="23.92"/><circle class="p" cx="399.96" cy="716.43" r="40.95"/><circle class="m" cx="399.96" cy="716.43" r="23.92"/></g></g><g id="c"><g class="r"><g id="e"><path class="o" d="M236.59,604.94h-34.88v-74.31h-25.5v-29.46h85.88v29.46h-25.5v74.31Z"/><path class="o" d="M334.38,565.52h-28.43v39.43h-34.88v-103.77h34.73v35.18h28.43v-35.18h35.03v103.77h-34.88v-39.43Z"/><path class="o" d="M379.28,501.18h41.35v103.77h-41.35v-103.77Z"/><path class="o" d="M430.67,501.19h34.73l29.61,52.62h.59l-1.47-52.62h33.12v103.77h-35.61l-28.73-49.54h-.59l1.46,49.54h-33.12v-103.77Z"/><path class="o" d="M594.08,607.58c-8.21,0-15.81-1.27-22.79-3.81-6.99-2.54-13.04-6.18-18.17-10.92-5.13-4.74-9.16-10.48-12.09-17.22-2.93-6.74-4.4-14.26-4.4-22.57s1.47-15.83,4.4-22.57c2.93-6.74,6.94-12.51,12.02-17.29,5.08-4.79,11.04-8.48,17.88-11.07,6.84-2.59,14.17-3.88,21.98-3.88s15.8,1.32,23.08,3.96c7.28,2.64,13.21,6.25,17.81,10.85l-20.37,24.48c-2.15-2.54-4.69-4.57-7.62-6.08-2.93-1.51-6.55-2.27-10.84-2.27-2.84,0-5.59,.56-8.28,1.69-2.69,1.12-5.06,2.74-7.11,4.84-2.05,2.1-3.71,4.62-4.98,7.55-1.27,2.93-1.91,6.21-1.91,9.82,0,7.23,1.88,13.12,5.64,17.66,3.76,4.54,9.79,6.82,18.1,6.82,1.47,0,2.98-.12,4.54-.37,1.56-.24,2.78-.61,3.66-1.1v-7.91h-16.71v-27.41h47.63v56.72c-2.44,1.47-5.25,2.81-8.43,4.03-3.18,1.22-6.55,2.27-10.11,3.15-3.57,.88-7.31,1.59-11.21,2.12-3.91,.54-7.82,.81-11.72,.81Z"/></g><g id="f"><path class="o" d="M291.31,300.7h-34.92v-74.4h-25.53v-29.49h85.99v29.49h-25.53v74.4Z"/><path class="o" d="M390.95,261.22h-28.47v39.47h-34.92v-103.89h34.78v35.22h28.47v-35.22h35.07v103.89h-34.92v-39.47Z"/><path class="o" d="M437.47,196.81h35.22v103.89h-35.22v-103.89Z"/><path class="o" d="M523.51,303.63c-4.21,0-8.34-.37-12.4-1.09-4.06-.73-7.97-1.8-11.74-3.21-3.77-1.41-7.31-3.07-10.64-4.96-3.33-1.9-6.64-4.47-9.28-6.8l22.13-22.13c2.44,2.64,5.18,4.45,9.24,6.51,4.06,2.05,8.24,3.08,12.55,3.08,1.96,0,3.74-.34,5.36-1.03,1.61-.69,2.42-1.96,2.42-3.82,0-.98-.27-1.81-.81-2.5-.54-.69-1.49-1.4-2.86-2.13-1.37-.73-3.25-1.54-5.65-2.43-2.4-.88-5.41-1.91-9.02-3.09-3.52-1.17-6.9-2.57-10.13-4.19-3.23-1.62-6.09-3.6-8.58-5.95-2.5-2.35-4.48-5.17-5.94-8.45-1.47-3.28-2.2-7.23-2.2-11.84,0-6.47,1.32-11.95,3.96-16.46,2.64-4.51,6.04-8.21,10.2-11.1,4.16-2.89,8.83-4.97,14.01-6.25,5.18-1.27,10.32-1.91,15.41-1.91,6.85,0,13.82,1.32,20.91,3.96,7.09,2.64,13.33,6.46,18.71,11.45l-21.72,22.16c-2.35-2.93-5.23-5.16-8.66-6.68-3.43-1.52-6.51-2.27-9.24-2.27-2.54,0-4.6,.37-6.16,1.1-1.57,.73-2.35,1.93-2.35,3.6,0,1.57,.81,2.74,2.42,3.52,1.61,.78,4.23,1.76,7.85,2.93,3.72,1.17,7.63,2.54,11.74,4.11,4.11,1.57,7.9,3.6,11.37,6.09,3.47,2.49,6.33,5.55,8.58,9.17,2.25,3.62,3.38,8.12,3.38,13.5,0,6.26-1.25,11.72-3.74,16.36-2.49,4.65-5.77,8.51-9.83,11.59-4.06,3.08-8.64,5.38-13.72,6.9-5.09,1.52-10.27,2.27-15.55,2.27Z"/></g><circle class="q" cx="400" cy="400" r="103.25"/><g id="g"><path class="o" d="M88.95,318.11h45.61l47.14,83.77h.93l-2.33-83.77h52.74v165.21h-56.71l-45.74-78.87h-.93l2.33,78.87h-52.74v-165.21h9.7"/><path class="o" d="M255.38,318.67h113.64v46.2h-61.37v14.23h57.64v43.17h-57.64v15.4h65.34v46.2h-117.61v-165.21Z"/><path class="o" d="M477.4,435.58l-28.7,48.3h-65.81l59.04-86.11-56-79.11h66.97l26.14,43.4,24.97-43.4h65.34l-55.07,78.41,60.9,86.81h-67.91l-29.87-48.3Z"/><path class="o" d="M679.14,483.89h-55.54v-118.31h-40.6v-46.9h136.75v46.9h-40.6v118.31Z"/></g></g><g class="s"><g id="i"><path class="o" d="M236.59,604.94h-34.88v-74.31h-25.5v-29.46h85.88v29.46h-25.5v74.31Z"/><path class="o" d="M334.38,565.52h-28.43v39.43h-34.88v-103.77h34.73v35.18h28.43v-35.18h35.03v103.77h-34.88v-39.43Z"/><path class="o" d="M379.28,501.18h41.35v103.77h-41.35v-103.77Z"/><path class="o" d="M430.67,501.19h34.73l29.61,52.62h.59l-1.47-52.62h33.12v103.77h-35.61l-28.73-49.54h-.59l1.46,49.54h-33.12v-103.77Z"/><path class="o" d="M594.08,607.58c-8.21,0-15.81-1.27-22.79-3.81-6.99-2.54-13.04-6.18-18.17-10.92-5.13-4.74-9.16-10.48-12.09-17.22-2.93-6.74-4.4-14.26-4.4-22.57s1.47-15.83,4.4-22.57c2.93-6.74,6.94-12.51,12.02-17.29,5.08-4.79,11.04-8.48,17.88-11.07,6.84-2.59,14.17-3.88,21.98-3.88s15.8,1.32,23.08,3.96c7.28,2.64,13.21,6.25,17.81,10.85l-20.37,24.48c-2.15-2.54-4.69-4.57-7.62-6.08-2.93-1.51-6.55-2.27-10.84-2.27-2.84,0-5.59,.56-8.28,1.69-2.69,1.12-5.06,2.74-7.11,4.84-2.05,2.1-3.71,4.62-4.98,7.55-1.27,2.93-1.91,6.21-1.91,9.82,0,7.23,1.88,13.12,5.64,17.66,3.76,4.54,9.79,6.82,18.1,6.82,1.47,0,2.98-.12,4.54-.37,1.56-.24,2.78-.61,3.66-1.1v-7.91h-16.71v-27.41h47.63v56.72c-2.44,1.47-5.25,2.81-8.43,4.03-3.18,1.22-6.55,2.27-10.11,3.15-3.57,.88-7.31,1.59-11.21,2.12-3.91,.54-7.82,.81-11.72,.81Z"/></g><g id="j"><path class="o" d="M291.31,300.7h-34.92v-74.4h-25.53v-29.49h85.99v29.49h-25.53v74.4Z"/><path class="o" d="M390.95,261.22h-28.47v39.47h-34.92v-103.89h34.78v35.22h28.47v-35.22h35.07v103.89h-34.92v-39.47Z"/><path class="o" d="M437.47,196.81h35.22v103.89h-35.22v-103.89Z"/><path class="o" d="M523.51,303.63c-4.21,0-8.34-.37-12.4-1.09-4.06-.73-7.97-1.8-11.74-3.21-3.77-1.41-7.31-3.07-10.64-4.96-3.33-1.9-6.64-4.47-9.28-6.8l22.13-22.13c2.44,2.64,5.18,4.45,9.24,6.51,4.06,2.05,8.24,3.08,12.55,3.08,1.96,0,3.74-.34,5.36-1.03,1.61-.69,2.42-1.96,2.42-3.82,0-.98-.27-1.81-.81-2.5-.54-.69-1.49-1.4-2.86-2.13-1.37-.73-3.25-1.54-5.65-2.43-2.4-.88-5.41-1.91-9.02-3.09-3.52-1.17-6.9-2.57-10.13-4.19-3.23-1.62-6.09-3.6-8.58-5.95-2.5-2.35-4.48-5.17-5.94-8.45-1.47-3.28-2.2-7.23-2.2-11.84,0-6.47,1.32-11.95,3.96-16.46,2.64-4.51,6.04-8.21,10.2-11.1,4.16-2.89,8.83-4.97,14.01-6.25,5.18-1.27,10.32-1.91,15.41-1.91,6.85,0,13.82,1.32,20.91,3.96,7.09,2.64,13.33,6.46,18.71,11.45l-21.72,22.16c-2.35-2.93-5.23-5.16-8.66-6.68-3.43-1.52-6.51-2.27-9.24-2.27-2.54,0-4.6,.37-6.16,1.1-1.57,.73-2.35,1.93-2.35,3.6,0,1.57,.81,2.74,2.42,3.52,1.61,.78,4.23,1.76,7.85,2.93,3.72,1.17,7.63,2.54,11.74,4.11,4.11,1.57,7.9,3.6,11.37,6.09,3.47,2.49,6.33,5.55,8.58,9.17,2.25,3.62,3.38,8.12,3.38,13.5,0,6.26-1.25,11.72-3.74,16.36-2.49,4.65-5.77,8.51-9.83,11.59-4.06,3.08-8.64,5.38-13.72,6.9-5.09,1.52-10.27,2.27-15.55,2.27Z"/></g><circle class="q" cx="400" cy="400" r="103.25"/><g id="k"><path class="o" d="M88.95,318.11h45.61l47.14,83.77h.93l-2.33-83.77h52.74v165.21h-56.71l-45.74-78.87h-.93l2.33,78.87h-52.74v-165.21h9.7"/><path class="o" d="M255.38,318.67h113.64v46.2h-61.37v14.23h57.64v43.17h-57.64v15.4h65.34v46.2h-117.61v-165.21Z"/><path class="o" d="M477.4,435.58l-28.7,48.3h-65.81l59.04-86.11-56-79.11h66.97l26.14,43.4,24.97-43.4h65.34l-55.07,78.41,60.9,86.81h-67.91l-29.87-48.3Z"/><path class="o" d="M679.14,483.89h-55.54v-118.31h-40.6v-46.9h136.75v46.9h-40.6v118.31Z"/></g></g></g></svg>