<?xml version="1.0" encoding="UTF-8"?><svg xmlns="http://www.w3.org/2000/svg" xmlns:xlink="http://www.w3.org/1999/xlink" viewBox="0 0 800 800"><defs><style>.f{fill:none;}.g{fill:#011e2b;}.h{fill:#0071bc;}.i{fill:#09487c;}.j{fill:#7badee;}.k{clip-path:url(#d);}</style><clipPath id="d"><circle class="f" cx="399.93" cy="395.94" r="320.5"/></clipPath></defs><g id="a"/><g id="b"><g><circle class="h" cx="399.93" cy="395.94" r="320"/><g><polygon class="j" points="371.84 719.5 371.84 418.96 146.25 193.38 186.02 153.61 400 367.59 613.98 153.61 653.75 193.38 428.16 418.96 428.16 719.5 371.84 719.5"/><path class="h" d="M613.98,164.21l29.16,29.16-218.09,218.08-4.39,4.39v296.15h-41.33V415.85l-4.39-4.39L156.86,193.38l29.16-29.16,203.37,203.37,10.61,10.61,10.61-10.61,203.37-203.37m0-21.21l-213.98,213.98L186.02,143l-50.37,50.37,228.69,228.69v304.93h71.33V422.07l228.69-228.69-50.37-50.37h0Z"/></g><circle class="j" cx="399.93" cy="716.44" r="57.91"/><circle class="j" cx="634.77" cy="174.01" r="57.91"/><circle class="j" cx="156.29" cy="174.01" r="57.91"/><circle class="i" cx="634.77" cy="174.01" r="40.95"/><circle class="g" cx="634.77" cy="174.01" r="23.92"/><circle class="i" cx="156.29" cy="174.01" r="40.95"/><circle class="g" cx="156.29" cy="174.01" r="23.92"/><circle class="i" cx="399.96" cy="716.43" r="40.95"/><circle class="g" cx="399.96" cy="716.43" r="23.92"/></g></g><g id="c"><g class="k"><circle class="j" cx="400" cy="400" r="103.25"/><g id="e"/></g></g></svg>