<?xml version="1.0" encoding="UTF-8"?><svg xmlns="http://www.w3.org/2000/svg" viewBox="0 0 800 800"><defs><style>.c{fill:#f2f2f2;}.d{fill:#0071bc;}.e,.f{fill:#fff;}.g{fill:#7badee;}.f,.h{stroke:#7badee;stroke-miterlimit:10;stroke-width:21px;}.h{fill:none;}</style></defs><g id="a"><g><path class="d" d="M402,723.5c-85.48,0-165.83-33.29-226.27-93.73-60.44-60.44-93.73-140.8-93.73-226.27s33.29-165.83,93.73-226.27c60.44-60.44,140.8-93.73,226.27-93.73s165.83,33.29,226.27,93.73c60.44,60.44,93.73,140.8,93.73,226.27s-33.29,165.83-93.73,226.27c-60.44,60.44-140.8,93.73-226.27,93.73Z"/><path class="c" d="M402,84c43.13,0,84.97,8.45,124.36,25.11,38.05,16.09,72.21,39.13,101.56,68.47,29.34,29.34,52.38,63.51,68.47,101.56,16.66,39.39,25.11,81.23,25.11,124.36s-8.45,84.97-25.11,124.36c-16.09,38.05-39.13,72.21-68.47,101.56-29.34,29.34-63.51,52.38-101.56,68.47-39.39,16.66-81.23,25.11-124.36,25.11s-84.97-8.45-124.36-25.11c-38.05-16.09-72.21-39.13-101.56-68.47-29.34-29.34-52.38-63.51-68.47-101.56-16.66-39.39-25.11-81.23-25.11-124.36s8.45-84.97,25.11-124.36c16.09-38.05,39.13-72.21,68.47-101.56,29.34-29.34,63.51-52.38,101.56-68.47,39.39-16.66,81.23-25.11,124.36-25.11m0-1c-177.01,0-320.5,143.49-320.5,320.5s143.49,320.5,320.5,320.5,320.5-143.49,320.5-320.5S579.01,83,402,83h0Z"/></g><circle class="g" cx="400" cy="724" r="42"/><polyline class="h" points="123 243.72 400 400 678.38 243.72"/><line class="f" x1="400" y1="724" x2="400" y2="400"/><circle class="g" cx="678.38" cy="243.72" r="42"/><circle class="g" cx="123" cy="243.72" r="42"/><circle class="g" cx="400" cy="400" r="42"/></g><g id="b"><g><path class="e" d="M264.9,306.38h-40.46v-86.19h-29.58v-34.17h99.62v34.17h-29.58v86.19Z"/><path class="e" d="M380.33,260.65h-32.98v45.73h-40.46v-120.36h40.29v40.8h32.98v-40.8h40.63v120.36h-40.46v-45.73Z"/><path class="e" d="M443.23,186.02h40.8v120.36h-40.8v-120.36Z"/><path class="e" d="M545.91,309.78c-4.87,0-9.66-.42-14.37-1.27-4.7-.85-9.24-2.09-13.6-3.72-4.36-1.64-8.47-3.55-12.33-5.75-3.85-2.2-7.31-4.65-10.37-7.36l24.65-26.78c2.83,3.06,6.6,5.78,11.3,8.16,4.7,2.38,9.55,3.57,14.54,3.57,2.27,0,4.33-.4,6.21-1.19,1.87-.79,2.8-2.27,2.8-4.43,0-1.13-.31-2.1-.93-2.9-.62-.79-1.73-1.62-3.32-2.47-1.59-.85-3.77-1.79-6.54-2.81-2.78-1.02-6.26-2.21-10.46-3.58-4.08-1.36-7.99-2.98-11.73-4.85-3.74-1.87-7.05-4.17-9.94-6.9-2.89-2.73-5.19-5.99-6.88-9.79-1.7-3.8-2.55-8.37-2.55-13.71,0-7.49,1.53-13.85,4.59-19.07,3.06-5.22,7-9.51,11.81-12.86,4.82-3.35,10.23-5.76,16.24-7.24,6.01-1.48,11.96-2.21,17.85-2.21,7.93,0,16.01,1.53,24.23,4.59,8.21,3.06,15.44,7.48,21.67,13.26l-25.16,25.67c-2.72-3.4-6.06-5.98-10.03-7.73-3.97-1.76-7.54-2.63-10.71-2.63-2.95,0-5.33,.42-7.14,1.27-1.81,.85-2.72,2.24-2.72,4.17,0,1.81,.94,3.17,2.81,4.08,1.87,.91,4.9,2.04,9.09,3.4,4.31,1.36,8.84,2.95,13.6,4.76,4.76,1.81,9.15,4.17,13.18,7.05,4.02,2.89,7.34,6.43,9.94,10.62,2.61,4.19,3.91,9.41,3.91,15.64,0,7.25-1.44,13.57-4.33,18.96-2.89,5.38-6.69,9.86-11.39,13.43-4.7,3.57-10,6.23-15.9,7.99-5.89,1.76-11.9,2.63-18.02,2.63Z"/></g><g><path class="e" d="M78.35,316.06h56.92l48.51,86.21h.96l-2.4-86.21h54.27v170.03h-58.36l-47.07-81.17h-.96l2.4,81.17h-54.27v-170.03Z"/><path class="e" d="M268.31,316.06h116.95v47.55h-63.16v14.65h59.32v44.43h-59.32v15.85h67.24v47.55h-121.04v-170.03Z"/><path class="e" d="M491.64,436.38l-29.54,49.71h-67.72l60.76-88.62-57.64-81.41h68.92l26.9,44.67,25.7-44.67h67.24l-56.67,80.69,62.68,89.34h-69.88l-30.74-49.71Z"/><path class="e" d="M690.01,486.09h-57.16v-121.76h-41.79v-48.27h140.73v48.27h-41.79v121.76Z"/></g><g><path class="e" d="M201.23,622.27h-40.46v-86.19h-29.58v-34.17h99.62v34.17h-29.58v86.19Z"/><path class="e" d="M316.66,576.54h-32.98v45.73h-40.46v-120.36h40.29v40.8h32.98v-40.8h40.63v120.36h-40.46v-45.73Z"/><path class="e" d="M379.56,501.91h40.8v120.36h-40.8v-120.36Z"/><path class="e" d="M442.79,501.91h40.29l34.34,61.03h.68l-1.7-61.03h38.42v120.36h-41.31l-33.32-57.46h-.68l1.7,57.46h-38.42v-120.36Z"/><path class="e" d="M638.46,625.33c-9.52,0-18.33-1.47-26.43-4.42-8.1-2.95-15.13-7.17-21.08-12.67-5.95-5.5-10.62-12.15-14.03-19.97-3.4-7.82-5.1-16.55-5.1-26.18s1.7-18.36,5.1-26.18c3.4-7.82,8.05-14.51,13.94-20.06,5.89-5.55,12.81-9.83,20.74-12.83,7.93-3,16.43-4.5,25.5-4.5s18.33,1.53,26.78,4.59c8.44,3.06,15.33,7.25,20.66,12.58l-23.63,28.39c-2.49-2.95-5.44-5.3-8.84-7.05-3.4-1.76-7.59-2.63-12.58-2.63-3.29,0-6.49,.65-9.61,1.96-3.12,1.3-5.87,3.17-8.25,5.61-2.38,2.44-4.31,5.36-5.78,8.75-1.47,3.4-2.21,7.2-2.21,11.39,0,8.39,2.18,15.21,6.54,20.48,4.36,5.27,11.36,7.91,21,7.91,1.7,0,3.46-.14,5.27-.42,1.81-.28,3.23-.71,4.25-1.28v-9.18h-19.38v-31.79h55.25v65.79c-2.83,1.7-6.09,3.26-9.78,4.67-3.68,1.42-7.59,2.63-11.73,3.66-4.14,1.02-8.47,1.84-13.01,2.46-4.53,.62-9.07,.93-13.6,.93Z"/></g></g></svg>