<?xml version="1.0" encoding="utf-8"?>
<!-- Generator: Adobe Illustrator 27.8.1, SVG Export Plug-In . SVG Version: 6.00 Build 0)  -->
<svg version="1.1" id="Layer_1" xmlns="http://www.w3.org/2000/svg" xmlns:xlink="http://www.w3.org/1999/xlink" x="0px" y="0px"
	 viewBox="0 0 32 32" style="enable-background:new 0 0 32 32;" xml:space="preserve">
<style type="text/css">
	.st0{fill:#231F20;}
</style>
<g>
	<path class="st0" d="M15,25.5c-0.5,0.4-0.6,1.1-0.2,1.6c0.2,0.3,0.5,0.4,0.9,0.4c0.3,0,0.5-0.1,0.7-0.2c0.2-0.2,0.4-0.5,0.4-0.8
		c0-0.3,0-0.6-0.2-0.8c-0.2-0.3-0.5-0.4-0.9-0.4C15.4,25.3,15.2,25.3,15,25.5z M16.3,25.9c0.3,0.3,0.2,0.8-0.1,1.1
		c-0.3,0.3-0.8,0.2-1.1-0.1c-0.3-0.3-0.2-0.8,0.1-1.1C15.6,25.5,16,25.6,16.3,25.9z"/>
	<path class="st0" d="M8.2,8.4c0,0-0.1,0-0.1,0c-0.6,0-1.1,0.4-1.1,1c0,0.3,0,0.6,0.2,0.8c0.2,0.2,0.5,0.4,0.8,0.4c0,0,0.1,0,0.1,0
		c0.6,0,1.1-0.4,1.1-1c0-0.3,0-0.6-0.2-0.8C8.8,8.6,8.5,8.4,8.2,8.4z M8.8,9.6C8.8,10,8.4,10.3,8,10.3c-0.4-0.1-0.7-0.4-0.7-0.8
		C7.4,9,7.7,8.7,8.2,8.7C8.6,8.8,8.9,9.2,8.8,9.6z"/>
	<path class="st0" d="M22.9,8.3C22.9,8.3,22.9,8.3,22.9,8.3c-0.7,0-1.2,0.5-1.2,1.1c0,0.6,0.5,1.2,1.1,1.2c0,0,0,0,0.1,0
		c0.6,0,1.1-0.5,1.1-1.1C24,8.9,23.5,8.4,22.9,8.3z M22.8,10.2c-0.4,0-0.7-0.4-0.7-0.8c0-0.4,0.4-0.7,0.8-0.7c0.4,0,0.7,0.4,0.7,0.8
		C23.6,9.9,23.2,10.3,22.8,10.2z"/>
	<path class="st0" d="M15.6,3.5C8.5,3.5,2.8,9.2,2.8,16.3c0,7.1,5.7,12.8,12.8,12.8s12.8-5.7,12.8-12.8C28.4,9.2,22.7,3.5,15.6,3.5z
		 M22.9,11.3C22.8,11.3,22.8,11.3,22.9,11.3c-0.3,0-0.5-0.1-0.8-0.2l-3.7,3.7c0.4,0.6,0.6,1.3,0.5,2c-0.1,1.6-1.2,2.8-2.6,3.1l0,4.7
		c0.3,0.1,0.6,0.3,0.9,0.6c0.6,0.8,0.5,2-0.3,2.6c-0.3,0.3-0.7,0.4-1.1,0.4c-0.6,0-1.1-0.2-1.5-0.7c-0.6-0.8-0.5-2,0.3-2.6
		c0.1-0.1,0.3-0.2,0.4-0.2l0-4.7c-1.6-0.3-2.8-1.8-2.7-3.4c0-0.6,0.2-1.1,0.5-1.6l-4-3.7c-0.2,0.1-0.5,0.1-0.7,0.1
		c-0.1,0-0.2,0-0.2,0c-1-0.1-1.7-1.1-1.6-2.1c0.1-0.9,0.9-1.6,1.8-1.6c0.1,0,0.2,0,0.2,0c1,0.1,1.7,1.1,1.6,2.1
		c0,0.2-0.1,0.4-0.2,0.6l3.9,3.7c0.6-0.4,1.3-0.7,2.1-0.6c0.6,0,1.2,0.2,1.7,0.6l3.7-3.6C21,10,21,9.7,21,9.4c0-1,0.9-1.8,1.9-1.8
		c0,0,0.1,0,0.1,0c1,0,1.8,0.9,1.8,1.9C24.7,10.6,23.9,11.3,22.9,11.3z"/>
</g>
</svg>
